<svg width="176" height="32" viewBox="0 0 176 32" fill="none" xmlns="http://www.w3.org/2000/svg">
<path d="M16 2.66675C8.63999 2.66675 2.66666 8.64008 2.66666 16.0001C2.66666 23.3601 8.63999 29.3334 16 29.3334C23.36 29.3334 29.3333 23.3601 29.3333 16.0001C29.3333 8.64008 23.36 2.66675 16 2.66675ZM22.1867 11.7334C21.9867 13.8401 21.12 18.9601 20.68 21.3201C20.4933 22.3201 20.12 22.6534 19.7733 22.6934C19 22.7601 18.4133 22.1868 17.6667 21.6934C16.4933 20.9201 15.8267 20.4401 14.6933 19.6934C13.3733 18.8268 14.2267 18.3468 14.9867 17.5734C15.1867 17.3734 18.6 14.2668 18.6667 13.9867C18.6759 13.9443 18.6747 13.9003 18.6631 13.8585C18.6515 13.8167 18.6298 13.7783 18.6 13.7468C18.52 13.6801 18.4133 13.7067 18.32 13.7201C18.2 13.7467 16.3333 14.9868 12.6933 17.4401C12.16 17.8001 11.68 17.9868 11.2533 17.9734C10.7733 17.9601 9.86666 17.7068 9.18666 17.4801C8.34666 17.2134 7.69332 17.0668 7.74666 16.6001C7.77332 16.3601 8.10666 16.1201 8.73332 15.8668C12.6267 14.1734 15.2133 13.0534 16.5067 12.5201C20.2133 10.9734 20.9733 10.7067 21.48 10.7067C21.5867 10.7067 21.84 10.7334 22 10.8667C22.1333 10.9734 22.1733 11.1201 22.1867 11.2268C22.1733 11.3068 22.2 11.5468 22.1867 11.7334Z" fill="white"/>
<path d="M64.36 2.99976C56.9814 2.99976 51 8.98114 51 16.3598C51 23.7384 56.9814 29.7198 64.36 29.7198C71.7386 29.7198 77.72 23.7384 77.72 16.3598C77.72 8.98114 71.7386 2.99976 64.36 2.99976ZM69.498 18.0729C69.498 18.0729 70.6796 19.2391 70.9704 19.7805C70.9788 19.7916 70.9829 19.8027 70.9857 19.8083C71.104 20.0073 71.1318 20.1618 71.0734 20.2773C70.976 20.4693 70.642 20.564 70.5279 20.5723H68.4404C68.2956 20.5723 67.9922 20.5348 67.6248 20.2815C67.3423 20.0839 67.064 19.7596 66.7926 19.4437C66.3877 18.9733 66.037 18.5669 65.6835 18.5669C65.6386 18.5669 65.594 18.5739 65.5513 18.5878C65.2841 18.6741 64.9417 19.0554 64.9417 20.0713C64.9417 20.3886 64.6912 20.5709 64.5145 20.5709H63.5584C63.2327 20.5709 61.5363 20.4568 60.0333 18.8717C58.1935 16.9303 56.5374 13.0365 56.5235 13.0003C56.4191 12.7484 56.6349 12.6134 56.87 12.6134H58.9784C59.2595 12.6134 59.3514 12.7846 59.4154 12.9363C59.4906 13.113 59.7661 13.8158 60.2184 14.6063C60.9518 15.8949 61.4013 16.4182 61.7618 16.4182C61.8293 16.4174 61.8957 16.4002 61.9552 16.3681C62.4256 16.1065 62.3379 14.4295 62.317 14.0816C62.317 14.0162 62.3156 13.3315 62.0749 13.0031C61.9023 12.7651 61.6087 12.6746 61.4305 12.6412C61.5026 12.5417 61.5976 12.4611 61.7075 12.406C62.0303 12.2446 62.6121 12.2209 63.1896 12.2209H63.5111C64.1373 12.2293 64.2988 12.2696 64.5256 12.3267C64.9849 12.4366 64.9946 12.7331 64.9542 13.7476C64.9417 14.0357 64.9292 14.3613 64.9292 14.7454C64.9292 14.8289 64.925 14.918 64.925 15.0126C64.9111 15.5289 64.8944 16.1148 65.259 16.3556C65.3066 16.3854 65.3615 16.4013 65.4177 16.4015C65.5443 16.4015 65.9256 16.4015 66.9582 14.6299C67.2767 14.0597 67.5534 13.4671 67.7863 12.8569C67.8072 12.8207 67.8684 12.7094 67.9408 12.6663C67.9942 12.639 68.0534 12.6252 68.1133 12.6259H70.5919C70.8619 12.6259 71.047 12.6663 71.0817 12.7706C71.143 12.9363 71.0706 13.4414 69.9392 14.9737L69.434 15.6403C68.4084 16.9846 68.4084 17.0528 69.498 18.0729Z" fill="white"/>
<path d="M108.053 28.7201C109.333 29.1068 110.627 29.3334 112 29.3334C115.536 29.3334 118.928 27.9287 121.428 25.4282C123.929 22.9277 125.333 19.5363 125.333 16.0001C125.333 14.2491 124.988 12.5153 124.318 10.8976C123.648 9.27996 122.666 7.81011 121.428 6.57199C120.19 5.33388 118.72 4.35175 117.102 3.68169C115.485 3.01163 113.751 2.66675 112 2.66675C110.249 2.66675 108.515 3.01163 106.898 3.68169C105.28 4.35175 103.81 5.33388 102.572 6.57199C100.071 9.07248 98.6667 12.4639 98.6667 16.0001C98.6667 21.6668 102.227 26.5334 107.253 28.4534C107.133 27.4134 107.013 25.6934 107.253 24.5068L108.787 17.9201C108.787 17.9201 108.4 17.1468 108.4 15.9201C108.4 14.0801 109.547 12.7067 110.853 12.7067C112 12.7067 112.533 13.5468 112.533 14.6268C112.533 15.7734 111.773 17.4134 111.387 18.9868C111.16 20.2934 112.08 21.4401 113.413 21.4401C115.787 21.4401 117.627 18.9068 117.627 15.3334C117.627 12.1334 115.333 9.94675 112.04 9.94675C108.28 9.94675 106.067 12.7468 106.067 15.6934C106.067 16.8401 106.44 18.0001 107.053 18.7601C107.173 18.8401 107.173 18.9468 107.133 19.1468L106.747 20.6001C106.747 20.8268 106.6 20.9068 106.373 20.7468C104.667 20.0001 103.68 17.5734 103.68 15.6134C103.68 11.4001 106.667 7.57342 112.427 7.57342C117.013 7.57342 120.587 10.8667 120.587 15.2401C120.587 19.8268 117.747 23.5068 113.68 23.5068C112.387 23.5068 111.12 22.8134 110.667 22.0001L109.773 25.1601C109.467 26.3068 108.627 27.8401 108.053 28.7601V28.7201Z" fill="white"/>
<path d="M168 8C170.76 10.72 171.8 14.52 171.147 18.0667C171.693 19.0267 172 20.1467 172 21.3333C172 23.1014 171.298 24.7971 170.047 26.0474C168.797 27.2976 167.101 28 165.333 28C164.147 28 163.027 27.6933 162.067 27.1467C158.52 27.8 154.72 26.76 152 24C149.24 21.28 148.2 17.48 148.853 13.9333C148.307 12.9733 148 11.8533 148 10.6667C148 8.89856 148.702 7.20286 149.953 5.95262C151.203 4.70238 152.899 4 154.667 4C155.853 4 156.973 4.30667 157.933 4.85333C161.48 4.2 165.28 5.24 168 8ZM160.053 22.88C163.88 22.88 165.787 21.04 165.787 18.56C165.787 16.9733 165.04 15.28 162.147 14.6267L159.493 14.04C158.48 13.8133 157.333 13.5067 157.333 12.56C157.333 11.6 158.133 10.9333 159.6 10.9333C162.573 10.9333 162.293 12.9733 163.773 12.9733C164.547 12.9733 165.213 12.52 165.213 11.7333C165.213 9.90667 162.293 8.53333 159.813 8.53333C157.133 8.53333 154.267 9.68 154.267 12.72C154.267 14.1867 154.787 15.7467 157.667 16.4667L161.253 17.3733C162.333 17.64 162.6 18.24 162.6 18.8C162.6 19.7067 161.693 20.6 160.053 20.6C156.84 20.6 157.28 18.1333 155.56 18.1333C154.787 18.1333 154.227 18.6667 154.227 19.4267C154.227 20.9067 156 22.88 160.053 22.88Z" fill="white"/>
</svg>
