<svg width="270" height="52" viewBox="0 0 270 52" fill="none" xmlns="http://www.w3.org/2000/svg">
<rect x="0.5" y="0.5" width="269" height="51" rx="7.5" stroke="#E1E3E4"/>
<path d="M17.232 31.272L16.224 29.752C16.6507 29.5067 17.024 29.224 17.344 28.904C17.6747 28.5733 17.9467 28.1627 18.16 27.672C18.384 27.1707 18.5493 26.552 18.656 25.816C18.7733 25.08 18.832 24.1893 18.832 23.144V19.72H26.8V31H24.752V21.432H20.72V23.672C20.72 25.112 20.5813 26.3333 20.304 27.336C20.0373 28.328 19.6427 29.1387 19.12 29.768C18.5973 30.3973 17.968 30.8987 17.232 31.272ZM32.7513 31.16C31.9406 31.16 31.2366 30.9947 30.6393 30.664C30.0419 30.3333 29.5779 29.864 29.2473 29.256C28.9166 28.6373 28.7513 27.912 28.7513 27.08C28.7513 26.248 28.9166 25.528 29.2473 24.92C29.5779 24.312 30.0419 23.8427 30.6393 23.512C31.2366 23.1813 31.9406 23.016 32.7513 23.016C33.5619 23.016 34.2659 23.1813 34.8633 23.512C35.4606 23.8427 35.9246 24.312 36.2552 24.92C36.5859 25.528 36.7513 26.248 36.7513 27.08C36.7513 27.912 36.5859 28.6373 36.2552 29.256C35.9246 29.864 35.4606 30.3333 34.8633 30.664C34.2659 30.9947 33.5619 31.16 32.7513 31.16ZM32.7513 29.64C33.3486 29.64 33.8286 29.4267 34.1913 29C34.5539 28.5627 34.7353 27.9227 34.7353 27.08C34.7353 26.2267 34.5539 25.592 34.1913 25.176C33.8286 24.7493 33.3486 24.536 32.7513 24.536C32.1539 24.536 31.6739 24.7493 31.3113 25.176C30.9486 25.592 30.7673 26.2267 30.7673 27.08C30.7673 27.9227 30.9486 28.5627 31.3113 29C31.6739 29.4267 32.1539 29.64 32.7513 29.64ZM38.6048 31V23.176H40.6048V26.216H41.7408L44.0128 23.176H46.1568L43.5968 26.68C43.8421 26.808 44.0608 26.9893 44.2528 27.224C44.4554 27.448 44.6581 27.736 44.8608 28.088L46.5087 31H44.3648L43.0528 28.696C42.8501 28.3227 42.6421 28.0773 42.4288 27.96C42.2261 27.832 41.9488 27.768 41.5968 27.768H40.6048V31H38.6048ZM50.1343 31.16C49.5689 31.16 49.0623 31.0533 48.6143 30.84C48.1769 30.616 47.8303 30.3173 47.5743 29.944C47.3289 29.5707 47.2063 29.1493 47.2063 28.68C47.2063 28.104 47.3556 27.6507 47.6543 27.32C47.9529 26.9787 48.4383 26.7333 49.1103 26.584C49.7823 26.4347 50.6836 26.36 51.8143 26.36H52.3743V26.024C52.3743 25.4907 52.2569 25.1067 52.0223 24.872C51.7876 24.6373 51.3929 24.52 50.8383 24.52C50.4009 24.52 49.9529 24.5893 49.4943 24.728C49.0356 24.856 48.5716 25.0587 48.1023 25.336L47.5263 23.976C47.8036 23.784 48.1289 23.6187 48.5023 23.48C48.8863 23.3307 49.2863 23.2187 49.7023 23.144C50.1289 23.0587 50.5289 23.016 50.9023 23.016C52.0436 23.016 52.8916 23.2827 53.4463 23.816C54.0009 24.3387 54.2783 25.1547 54.2783 26.264V31H52.4063V29.752C52.2249 30.1893 51.9369 30.536 51.5423 30.792C51.1476 31.0373 50.6783 31.16 50.1343 31.16ZM50.5503 29.784C51.0729 29.784 51.5049 29.6027 51.8463 29.24C52.1983 28.8773 52.3743 28.4187 52.3743 27.864V27.512H51.8303C50.8276 27.512 50.1289 27.592 49.7343 27.752C49.3503 27.9013 49.1583 28.1787 49.1583 28.584C49.1583 28.936 49.2809 29.224 49.5263 29.448C49.7716 29.672 50.1129 29.784 50.5503 29.784ZM63.311 33.08V31H56.511V23.176H58.511V29.432H61.727V23.176H63.727V29.432H65.007V33.08H63.311ZM66.4798 31V23.176H68.2878V28.392L72.2078 23.176H73.8718V31H72.0638V25.784L68.1438 31H66.4798ZM75.464 31L76.632 28.984C76.9307 28.44 77.3253 28.0773 77.816 27.896C76.4933 27.6507 75.832 26.888 75.832 25.608C75.832 24.8507 76.088 24.2587 76.6 23.832C77.112 23.3947 77.864 23.176 78.856 23.176H82.84V31H80.984V28.296H80.152C79.832 28.296 79.5547 28.3813 79.32 28.552C79.0853 28.7227 78.8933 28.936 78.744 29.192L77.72 31H75.464ZM79.272 26.984H80.984V24.488H79.272C78.7493 24.488 78.36 24.6 78.104 24.824C77.848 25.0373 77.72 25.336 77.72 25.72C77.72 26.1147 77.848 26.424 78.104 26.648C78.36 26.872 78.7493 26.984 79.272 26.984ZM88.6973 33.08V29.432H89.5933C89.9026 28.9413 90.1213 28.3813 90.2493 27.752C90.3879 27.1227 90.4573 26.3387 90.4573 25.4V23.176H96.5533V29.432H97.8333V33.08H96.1373V31H90.3932V33.08H88.6973ZM91.4013 29.432H94.6813V24.712H92.1693V25.864C92.1693 26.536 92.0999 27.1867 91.9613 27.816C91.8333 28.4453 91.6466 28.984 91.4013 29.432ZM99.0999 31.224L98.4759 29.64C98.9239 29.48 99.2812 29.2507 99.5479 28.952C99.8145 28.6427 100.001 28.2213 100.108 27.688C100.225 27.144 100.284 26.4453 100.284 25.592V23.176H106.588V31H104.588V24.744H102.124V25.656C102.124 27.3413 101.884 28.6267 101.404 29.512C100.935 30.3867 100.167 30.9573 99.0999 31.224ZM108.183 31L109.351 28.984C109.649 28.44 110.044 28.0773 110.535 27.896C109.212 27.6507 108.551 26.888 108.551 25.608C108.551 24.8507 108.807 24.2587 109.319 23.832C109.831 23.3947 110.583 23.176 111.575 23.176H115.559V31H113.703V28.296H112.871C112.551 28.296 112.273 28.3813 112.039 28.552C111.804 28.7227 111.612 28.936 111.463 29.192L110.439 31H108.183ZM111.991 26.984H113.703V24.488H111.991C111.468 24.488 111.079 24.6 110.823 24.824C110.567 25.0373 110.439 25.336 110.439 25.72C110.439 26.1147 110.567 26.424 110.823 26.648C111.079 26.872 111.468 26.984 111.991 26.984ZM123.784 31V24.744H121.112V23.176H128.472V24.744H125.784V31H123.784ZM130.497 33.88L131.937 30.68L128.689 23.176H130.817L133.009 28.648L135.249 23.176H137.265L132.561 33.88H130.497ZM138.433 33.88V23.176H140.385V24.424C140.609 23.9973 140.945 23.656 141.393 23.4C141.852 23.144 142.369 23.016 142.945 23.016C143.628 23.016 144.225 23.1813 144.737 23.512C145.26 23.8427 145.665 24.312 145.953 24.92C146.241 25.5173 146.385 26.2373 146.385 27.08C146.385 27.912 146.241 28.6373 145.953 29.256C145.665 29.864 145.265 30.3333 144.753 30.664C144.241 30.9947 143.639 31.16 142.945 31.16C142.391 31.16 141.889 31.0427 141.441 30.808C141.004 30.5627 140.668 30.2373 140.433 29.832V33.88H138.433ZM142.385 29.64C142.983 29.64 143.463 29.4267 143.825 29C144.188 28.5627 144.369 27.9227 144.369 27.08C144.369 26.2267 144.188 25.592 143.825 25.176C143.463 24.7493 142.983 24.536 142.385 24.536C141.788 24.536 141.308 24.7493 140.945 25.176C140.583 25.592 140.401 26.2267 140.401 27.08C140.401 27.9227 140.583 28.5627 140.945 29C141.308 29.4267 141.788 29.64 142.385 29.64ZM150.837 31.16C150.272 31.16 149.765 31.0533 149.317 30.84C148.88 30.616 148.533 30.3173 148.277 29.944C148.032 29.5707 147.909 29.1493 147.909 28.68C147.909 28.104 148.059 27.6507 148.357 27.32C148.656 26.9787 149.141 26.7333 149.813 26.584C150.485 26.4347 151.387 26.36 152.517 26.36H153.077V26.024C153.077 25.4907 152.96 25.1067 152.725 24.872C152.491 24.6373 152.096 24.52 151.541 24.52C151.104 24.52 150.656 24.5893 150.197 24.728C149.739 24.856 149.275 25.0587 148.805 25.336L148.229 23.976C148.507 23.784 148.832 23.6187 149.205 23.48C149.589 23.3307 149.989 23.2187 150.405 23.144C150.832 23.0587 151.232 23.016 151.605 23.016C152.747 23.016 153.595 23.2827 154.149 23.816C154.704 24.3387 154.981 25.1547 154.981 26.264V31H153.109V29.752C152.928 30.1893 152.64 30.536 152.245 30.792C151.851 31.0373 151.381 31.16 150.837 31.16ZM151.253 29.784C151.776 29.784 152.208 29.6027 152.549 29.24C152.901 28.8773 153.077 28.4187 153.077 27.864V27.512H152.533C151.531 27.512 150.832 27.592 150.437 27.752C150.053 27.9013 149.861 28.1787 149.861 28.584C149.861 28.936 149.984 29.224 150.229 29.448C150.475 29.672 150.816 29.784 151.253 29.784Z" fill="#FDFDFD"/>
<path d="M250.248 22.6574L244 28.7474L237.752 22.6574C237.641 22.5484 237.491 22.4873 237.335 22.4873C237.179 22.4873 237.029 22.5484 236.917 22.6574C236.863 22.7104 236.821 22.7736 236.791 22.8433C236.762 22.9131 236.747 22.988 236.747 23.0637C236.747 23.1393 236.762 23.2142 236.791 23.284C236.821 23.3537 236.863 23.4169 236.917 23.4699L243.564 29.9499C243.68 30.0637 243.837 30.1273 244 30.1273C244.163 30.1273 244.32 30.0637 244.436 29.9499L251.083 23.4712C251.137 23.4182 251.18 23.3548 251.21 23.2848C251.239 23.2148 251.254 23.1396 251.254 23.0637C251.254 22.9877 251.239 22.9125 251.21 22.8425C251.18 22.7725 251.137 22.7091 251.083 22.6561C250.971 22.5471 250.821 22.4861 250.665 22.4861C250.509 22.4861 250.359 22.5471 250.248 22.6561V22.6574Z" fill="#FDFDFD"/>
</svg>
