<svg width="121" height="10" viewBox="0 0 121 10" fill="none" xmlns="http://www.w3.org/2000/svg">
<path d="M1.918 9.52L3.08 6.888L0.21 0.196H1.442L3.696 5.712L5.964 0.196H7.154L3.108 9.52H1.918ZM8.4618 7V0.196H9.5958V3.038H10.8698L13.0958 0.196H14.3418L11.9758 3.262C12.2185 3.35533 12.4378 3.50933 12.6338 3.724C12.8298 3.93867 13.0491 4.24667 13.2918 4.648L14.6918 7H13.4738L12.2418 4.942C12.0085 4.54067 11.7845 4.27467 11.5698 4.144C11.3551 4.01333 11.0518 3.948 10.6598 3.948H9.5958V7H8.4618ZM17.9869 7.126C17.5203 7.126 17.1003 7.03733 16.7269 6.86C16.3629 6.67333 16.0736 6.42133 15.8589 6.104C15.6443 5.78667 15.5369 5.432 15.5369 5.04C15.5369 4.54533 15.6629 4.15333 15.9149 3.864C16.1763 3.57467 16.6009 3.36933 17.1889 3.248C17.7863 3.11733 18.5983 3.052 19.6249 3.052H20.0729V2.618C20.0729 2.03933 19.9516 1.624 19.7089 1.372C19.4756 1.11067 19.0976 0.98 18.5749 0.98C18.1643 0.98 17.7676 1.04067 17.3849 1.162C17.0023 1.274 16.6103 1.46067 16.2089 1.722L15.8169 0.896C16.1716 0.644 16.6009 0.443333 17.1049 0.294C17.6183 0.144666 18.1083 0.0699995 18.5749 0.0699995C19.4523 0.0699995 20.1009 0.284666 20.5209 0.714C20.9503 1.14333 21.1649 1.81067 21.1649 2.716V7H20.1009V5.824C19.9236 6.22533 19.6483 6.54267 19.2749 6.776C18.9109 7.00933 18.4816 7.126 17.9869 7.126ZM18.1689 6.272C18.7289 6.272 19.1863 6.08067 19.5409 5.698C19.8956 5.306 20.0729 4.81133 20.0729 4.214V3.794H19.6389C18.8829 3.794 18.2856 3.83133 17.8469 3.906C17.4176 3.97133 17.1143 4.09267 16.9369 4.27C16.7689 4.438 16.6849 4.67133 16.6849 4.97C16.6849 5.35267 16.8156 5.66533 17.0769 5.908C17.3476 6.15067 17.7116 6.272 18.1689 6.272ZM22.2718 7L23.6718 4.648C23.9145 4.23733 24.1338 3.92467 24.3298 3.71C24.5351 3.49533 24.7638 3.34133 25.0158 3.248L22.6218 0.196H23.8678L26.1078 3.038H27.1858V0.196H28.3198V3.038H29.4118L31.6378 0.196H32.8838L30.4898 3.248C30.7418 3.34133 30.9658 3.49533 31.1618 3.71C31.3671 3.92467 31.5911 4.23733 31.8338 4.648L33.2338 7H32.0158L30.7838 4.942C30.5505 4.54067 30.3218 4.27467 30.0978 4.144C29.8831 4.01333 29.5845 3.948 29.2018 3.948H28.3198V7H27.1858V3.948H26.3038C25.9211 3.948 25.6225 4.01333 25.4078 4.144C25.1931 4.27467 24.9645 4.54067 24.7218 4.942L23.4898 7H22.2718ZM34.37 7V0.196H35.406V5.46L39.34 0.196H40.306V7H39.27V1.736L35.336 7H34.37ZM43.9598 7V1.106H41.4958V0.196H47.5718V1.106H45.0938V7H43.9598ZM51.8191 7.126C50.7458 7.126 49.8965 6.81333 49.2711 6.188C48.6458 5.55333 48.3331 4.69467 48.3331 3.612C48.3331 2.912 48.4731 2.296 48.7531 1.764C49.0331 1.22267 49.4158 0.807333 49.9011 0.518C50.3958 0.219333 50.9651 0.0699995 51.6091 0.0699995C52.5331 0.0699995 53.2565 0.368666 53.7791 0.966C54.3018 1.554 54.5631 2.366 54.5631 3.402V3.836H49.4391C49.4765 4.61067 49.7005 5.20333 50.1111 5.614C50.5218 6.01533 51.0911 6.216 51.8191 6.216C52.2298 6.216 52.6218 6.15533 52.9951 6.034C53.3685 5.90333 53.7231 5.69333 54.0591 5.404L54.4511 6.202C54.1431 6.49133 53.7511 6.72 53.2751 6.888C52.7991 7.04667 52.3138 7.126 51.8191 7.126ZM51.6371 0.91C50.9931 0.91 50.4845 1.11067 50.1111 1.512C49.7378 1.91333 49.5185 2.44067 49.4531 3.094H53.5831C53.5551 2.40333 53.3731 1.86667 53.0371 1.484C52.7105 1.10133 52.2438 0.91 51.6371 0.91ZM59.1807 8.82V6.09H59.8947C60.2214 5.614 60.4547 5.068 60.5947 4.452C60.7347 3.82667 60.8047 3.07533 60.8047 2.198V0.196H65.6207V6.09H66.6987V8.82H65.7187V7H60.1467V8.82H59.1807ZM60.9867 6.09H64.5427V1.092H61.8127V2.394C61.8127 3.094 61.7427 3.77067 61.6027 4.424C61.4627 5.07733 61.2574 5.63267 60.9867 6.09ZM68.2079 7V0.196H69.2439V5.46L73.1779 0.196H74.1439V7H73.1079V1.736L69.1739 7H68.2079ZM78.5397 7.126C78.073 7.126 77.653 7.03733 77.2797 6.86C76.9157 6.67333 76.6263 6.42133 76.4117 6.104C76.197 5.78667 76.0897 5.432 76.0897 5.04C76.0897 4.54533 76.2157 4.15333 76.4677 3.864C76.729 3.57467 77.1537 3.36933 77.7417 3.248C78.339 3.11733 79.151 3.052 80.1777 3.052H80.6257V2.618C80.6257 2.03933 80.5043 1.624 80.2617 1.372C80.0283 1.11067 79.6503 0.98 79.1277 0.98C78.717 0.98 78.3203 1.04067 77.9377 1.162C77.555 1.274 77.163 1.46067 76.7617 1.722L76.3697 0.896C76.7243 0.644 77.1537 0.443333 77.6577 0.294C78.171 0.144666 78.661 0.0699995 79.1277 0.0699995C80.005 0.0699995 80.6537 0.284666 81.0737 0.714C81.503 1.14333 81.7177 1.81067 81.7177 2.716V7H80.6537V5.824C80.4763 6.22533 80.201 6.54267 79.8277 6.776C79.4637 7.00933 79.0343 7.126 78.5397 7.126ZM78.7217 6.272C79.2817 6.272 79.739 6.08067 80.0937 5.698C80.4483 5.306 80.6257 4.81133 80.6257 4.214V3.794H80.1917C79.4357 3.794 78.8383 3.83133 78.3997 3.906C77.9703 3.97133 77.667 4.09267 77.4897 4.27C77.3217 4.438 77.2377 4.67133 77.2377 4.97C77.2377 5.35267 77.3683 5.66533 77.6297 5.908C77.9003 6.15067 78.2643 6.272 78.7217 6.272ZM83.9305 7V0.196H89.8665V7H88.7325V1.106H85.0645V7H83.9305ZM94.2623 7.126C93.7957 7.126 93.3757 7.03733 93.0023 6.86C92.6383 6.67333 92.349 6.42133 92.1343 6.104C91.9197 5.78667 91.8123 5.432 91.8123 5.04C91.8123 4.54533 91.9383 4.15333 92.1903 3.864C92.4517 3.57467 92.8763 3.36933 93.4643 3.248C94.0617 3.11733 94.8737 3.052 95.9003 3.052H96.3483V2.618C96.3483 2.03933 96.227 1.624 95.9843 1.372C95.751 1.11067 95.373 0.98 94.8503 0.98C94.4397 0.98 94.043 1.04067 93.6603 1.162C93.2777 1.274 92.8857 1.46067 92.4843 1.722L92.0923 0.896C92.447 0.644 92.8763 0.443333 93.3803 0.294C93.8937 0.144666 94.3837 0.0699995 94.8503 0.0699995C95.7277 0.0699995 96.3763 0.284666 96.7963 0.714C97.2257 1.14333 97.4403 1.81067 97.4403 2.716V7H96.3763V5.824C96.199 6.22533 95.9237 6.54267 95.5503 6.776C95.1863 7.00933 94.757 7.126 94.2623 7.126ZM94.4443 6.272C95.0043 6.272 95.4617 6.08067 95.8163 5.698C96.171 5.306 96.3483 4.81133 96.3483 4.214V3.794H95.9143C95.1583 3.794 94.561 3.83133 94.1223 3.906C93.693 3.97133 93.3897 4.09267 93.2123 4.27C93.0443 4.438 92.9603 4.67133 92.9603 4.97C92.9603 5.35267 93.091 5.66533 93.3523 5.908C93.623 6.15067 93.987 6.272 94.4443 6.272ZM101.907 7.126C101.319 7.126 100.764 7.05133 100.241 6.902C99.7279 6.74333 99.3125 6.524 98.9952 6.244L99.3592 5.446C99.6859 5.70733 100.069 5.908 100.507 6.048C100.946 6.17867 101.403 6.244 101.879 6.244C102.551 6.244 103.032 6.146 103.321 5.95C103.62 5.754 103.769 5.46467 103.769 5.082C103.769 4.34467 103.298 3.976 102.355 3.976H100.745V3.122H102.215C102.617 3.122 102.934 3.02867 103.167 2.842C103.41 2.65533 103.531 2.394 103.531 2.058C103.531 1.722 103.401 1.456 103.139 1.26C102.878 1.05467 102.458 0.952 101.879 0.952C100.974 0.952 100.171 1.19933 99.4712 1.694L99.1072 0.896C99.8725 0.345333 100.843 0.0699995 102.019 0.0699995C102.887 0.0699995 103.536 0.238 103.965 0.574C104.395 0.91 104.609 1.38133 104.609 1.988C104.609 2.33333 104.507 2.64133 104.301 2.912C104.105 3.17333 103.835 3.36467 103.489 3.486C103.909 3.58867 104.241 3.78467 104.483 4.074C104.726 4.354 104.847 4.704 104.847 5.124C104.847 5.73067 104.6 6.216 104.105 6.58C103.611 6.944 102.878 7.126 101.907 7.126ZM109.454 7.126C108.792 7.126 108.218 6.98133 107.732 6.692C107.247 6.40267 106.869 5.99667 106.598 5.474C106.337 4.942 106.206 4.31667 106.206 3.598C106.206 2.87933 106.337 2.25867 106.598 1.736C106.869 1.204 107.247 0.793333 107.732 0.504C108.218 0.214666 108.792 0.0699995 109.454 0.0699995C110.108 0.0699995 110.677 0.214666 111.162 0.504C111.657 0.793333 112.035 1.204 112.296 1.736C112.567 2.25867 112.702 2.87933 112.702 3.598C112.702 4.31667 112.567 4.942 112.296 5.474C112.035 5.99667 111.657 6.40267 111.162 6.692C110.677 6.98133 110.108 7.126 109.454 7.126ZM109.454 6.216C110.089 6.216 110.598 5.992 110.98 5.544C111.363 5.08667 111.554 4.438 111.554 3.598C111.554 2.74867 111.363 2.1 110.98 1.652C110.598 1.204 110.089 0.98 109.454 0.98C108.81 0.98 108.297 1.204 107.914 1.652C107.541 2.1 107.354 2.74867 107.354 3.598C107.354 4.438 107.541 5.08667 107.914 5.544C108.297 5.992 108.81 6.216 109.454 6.216ZM114.542 7V0.196H115.676V3.024H119.386V0.196H120.52V7H119.386V3.948H115.676V7H114.542Z" fill="#FDFDFD"/>
</svg>
