<svg width="135" height="13" viewBox="0 0 135 13" fill="none" xmlns="http://www.w3.org/2000/svg">
<path d="M0.12 10V3.196H1.058L3.62 7.746L6.182 3.196H7.106V10H6.098V5.044L3.9 8.908H3.326L1.128 5.044V10H0.12ZM9.34852 10V3.196H10.3845V8.46L14.3185 3.196H15.2845V10H14.2485V4.736L10.3145 10H9.34852ZM17.5243 10V3.196H18.6583V6.024H22.3683V3.196H23.5023V10H22.3683V6.948H18.6583V10H17.5243ZM25.7411 10V3.196H26.7771V8.46L30.7111 3.196H31.6771V10H30.6411V4.736L26.7071 10H25.7411ZM33.9169 10V3.196H34.8549L37.4169 7.746L39.9789 3.196H40.9029V10H39.8949V5.044L37.6969 8.908H37.1229L34.9249 5.044V10H33.9169ZM43.9434 12.52L45.1054 9.888L42.2354 3.196H43.4674L45.7214 8.712L47.9894 3.196H49.1794L45.1334 12.52H43.9434ZM50.4872 10V3.196H51.4252L53.9872 7.746L56.5492 3.196H57.4732V10H56.4652V5.044L54.2672 8.908H53.6932L51.4952 5.044V10H50.4872ZM67.4694 10V7.886H62.9194V7.018L67.6654 0.129999H68.6314V6.906H70.1014V7.886H68.6314V10H67.4694ZM67.4694 6.906V2.02L64.1094 6.906H67.4694ZM79.6696 10V7.242C79.147 7.55933 78.545 7.718 77.8636 7.718C76.893 7.718 76.1743 7.48933 75.7076 7.032C75.241 6.56533 75.0076 5.86067 75.0076 4.918V3.196H76.1416V4.834C76.1416 5.506 76.2863 5.996 76.5756 6.304C76.8743 6.612 77.3503 6.766 78.0036 6.766C78.3396 6.766 78.6336 6.72867 78.8856 6.654C79.147 6.57933 79.4036 6.458 79.6556 6.29V3.196H80.7896V10H79.6696ZM86.1063 10.126C85.0329 10.126 84.1836 9.81333 83.5583 9.188C82.9329 8.55333 82.6203 7.69467 82.6203 6.612C82.6203 5.912 82.7603 5.296 83.0403 4.764C83.3203 4.22267 83.7029 3.80733 84.1883 3.518C84.6829 3.21933 85.2523 3.07 85.8963 3.07C86.8203 3.07 87.5436 3.36867 88.0663 3.966C88.5889 4.554 88.8503 5.366 88.8503 6.402V6.836H83.7263C83.7636 7.61067 83.9876 8.20333 84.3983 8.614C84.8089 9.01533 85.3783 9.216 86.1063 9.216C86.5169 9.216 86.9089 9.15533 87.2823 9.034C87.6556 8.90333 88.0103 8.69333 88.3463 8.404L88.7383 9.202C88.4303 9.49133 88.0383 9.72 87.5623 9.888C87.0863 10.0467 86.6009 10.126 86.1063 10.126ZM85.9243 3.91C85.2803 3.91 84.7716 4.11067 84.3983 4.512C84.0249 4.91333 83.8056 5.44067 83.7403 6.094H87.8703C87.8423 5.40333 87.6603 4.86667 87.3243 4.484C86.9976 4.10133 86.5309 3.91 85.9243 3.91ZM90.2361 10.154L89.8161 9.258C90.2361 9.08067 90.5675 8.83333 90.8101 8.516C91.0528 8.18933 91.2208 7.74133 91.3141 7.172C91.4168 6.60267 91.4681 5.856 91.4681 4.932V3.196H96.4101V10H95.2761V4.106H92.5321V4.974C92.5321 6.038 92.4528 6.91533 92.2941 7.606C92.1448 8.29667 91.9021 8.84267 91.5661 9.244C91.2301 9.64533 90.7868 9.94867 90.2361 10.154ZM101.495 10.126C100.833 10.126 100.259 9.98133 99.7732 9.692C99.2879 9.40267 98.9099 8.99667 98.6392 8.474C98.3779 7.942 98.2472 7.31667 98.2472 6.598C98.2472 5.87933 98.3779 5.25867 98.6392 4.736C98.9099 4.204 99.2879 3.79333 99.7732 3.504C100.259 3.21467 100.833 3.07 101.495 3.07C102.149 3.07 102.718 3.21467 103.203 3.504C103.698 3.79333 104.076 4.204 104.337 4.736C104.608 5.25867 104.743 5.87933 104.743 6.598C104.743 7.31667 104.608 7.942 104.337 8.474C104.076 8.99667 103.698 9.40267 103.203 9.692C102.718 9.98133 102.149 10.126 101.495 10.126ZM101.495 9.216C102.13 9.216 102.639 8.992 103.021 8.544C103.404 8.08667 103.595 7.438 103.595 6.598C103.595 5.74867 103.404 5.1 103.021 4.652C102.639 4.204 102.13 3.98 101.495 3.98C100.851 3.98 100.338 4.204 99.9552 4.652C99.5819 5.1 99.3952 5.74867 99.3952 6.598C99.3952 7.438 99.5819 8.08667 99.9552 8.544C100.338 8.992 100.851 9.216 101.495 9.216ZM106.583 10V3.196H109.901C110.704 3.196 111.296 3.35 111.679 3.658C112.062 3.95667 112.253 4.4 112.253 4.988C112.253 5.34267 112.15 5.65067 111.945 5.912C111.749 6.17333 111.478 6.36467 111.133 6.486C111.553 6.58867 111.88 6.78467 112.113 7.074C112.356 7.36333 112.477 7.71333 112.477 8.124C112.477 8.70267 112.262 9.16 111.833 9.496C111.404 9.832 110.797 10 110.013 10H106.583ZM107.661 6.15H109.845C110.274 6.15 110.606 6.05667 110.839 5.87C111.072 5.674 111.189 5.39867 111.189 5.044C111.189 4.69867 111.072 4.43267 110.839 4.246C110.606 4.05933 110.274 3.966 109.845 3.966H107.661V6.15ZM107.661 9.23H109.971C110.438 9.23 110.792 9.132 111.035 8.936C111.278 8.74 111.399 8.45067 111.399 8.068C111.399 7.69467 111.278 7.41 111.035 7.214C110.792 7.018 110.438 6.92 109.971 6.92H107.661V9.23ZM117.319 10.126C116.246 10.126 115.396 9.81333 114.771 9.188C114.146 8.55333 113.833 7.69467 113.833 6.612C113.833 5.912 113.973 5.296 114.253 4.764C114.533 4.22267 114.916 3.80733 115.401 3.518C115.896 3.21933 116.465 3.07 117.109 3.07C118.033 3.07 118.756 3.36867 119.279 3.966C119.802 4.554 120.063 5.366 120.063 6.402V6.836H114.939C114.976 7.61067 115.2 8.20333 115.611 8.614C116.022 9.01533 116.591 9.216 117.319 9.216C117.73 9.216 118.122 9.15533 118.495 9.034C118.868 8.90333 119.223 8.69333 119.559 8.404L119.951 9.202C119.643 9.49133 119.251 9.72 118.775 9.888C118.299 10.0467 117.814 10.126 117.319 10.126ZM117.137 3.91C116.493 3.91 115.984 4.11067 115.611 4.512C115.238 4.91333 115.018 5.44067 114.953 6.094H119.083C119.055 5.40333 118.873 4.86667 118.537 4.484C118.21 4.10133 117.744 3.91 117.137 3.91ZM121.827 10V3.196H122.961V6.038H124.235L126.461 3.196H127.707L125.341 6.262C125.584 6.35533 125.803 6.50933 125.999 6.724C126.195 6.93867 126.414 7.24667 126.657 7.648L128.057 10H126.839L125.607 7.942C125.374 7.54067 125.15 7.27467 124.935 7.144C124.72 7.01333 124.417 6.948 124.025 6.948H122.961V10H121.827ZM131.352 10.126C130.886 10.126 130.466 10.0373 130.092 9.86C129.728 9.67333 129.439 9.42133 129.224 9.104C129.01 8.78667 128.902 8.432 128.902 8.04C128.902 7.54533 129.028 7.15333 129.28 6.864C129.542 6.57467 129.966 6.36933 130.554 6.248C131.152 6.11733 131.964 6.052 132.99 6.052H133.438V5.618C133.438 5.03933 133.317 4.624 133.074 4.372C132.841 4.11067 132.463 3.98 131.94 3.98C131.53 3.98 131.133 4.04067 130.75 4.162C130.368 4.274 129.976 4.46067 129.574 4.722L129.182 3.896C129.537 3.644 129.966 3.44333 130.47 3.294C130.984 3.14467 131.474 3.07 131.94 3.07C132.818 3.07 133.466 3.28467 133.886 3.714C134.316 4.14333 134.53 4.81067 134.53 5.716V10H133.466V8.824C133.289 9.22533 133.014 9.54267 132.64 9.776C132.276 10.0093 131.847 10.126 131.352 10.126ZM131.534 9.272C132.094 9.272 132.552 9.08067 132.906 8.698C133.261 8.306 133.438 7.81133 133.438 7.214V6.794H133.004C132.248 6.794 131.651 6.83133 131.212 6.906C130.783 6.97133 130.48 7.09267 130.302 7.27C130.134 7.438 130.05 7.67133 130.05 7.97C130.05 8.35267 130.181 8.66533 130.442 8.908C130.713 9.15067 131.077 9.272 131.534 9.272Z" fill="#FDFDFD"/>
</svg>
