<svg width="129" height="14" viewBox="0 0 129 14" fill="none" xmlns="http://www.w3.org/2000/svg">
<path d="M0.12 11V4.196H3.438C4.24067 4.196 4.83333 4.35 5.216 4.658C5.59867 4.95667 5.79 5.4 5.79 5.988C5.79 6.34267 5.68733 6.65067 5.482 6.912C5.286 7.17333 5.01533 7.36467 4.67 7.486C5.09 7.58867 5.41667 7.78467 5.65 8.074C5.89267 8.36333 6.014 8.71333 6.014 9.124C6.014 9.70267 5.79933 10.16 5.37 10.496C4.94067 10.832 4.334 11 3.55 11H0.12ZM1.198 7.15H3.382C3.81133 7.15 4.14267 7.05667 4.376 6.87C4.60933 6.674 4.726 6.39867 4.726 6.044C4.726 5.69867 4.60933 5.43267 4.376 5.246C4.14267 5.05933 3.81133 4.966 3.382 4.966H1.198V7.15ZM1.198 10.23H3.508C3.97467 10.23 4.32933 10.132 4.572 9.936C4.81467 9.74 4.936 9.45067 4.936 9.068C4.936 8.69467 4.81467 8.41 4.572 8.214C4.32933 8.018 3.97467 7.92 3.508 7.92H1.198V10.23ZM7.77625 11V4.196H8.91025V6.618H10.9683C11.8363 6.618 12.4943 6.80933 12.9423 7.192C13.3903 7.56533 13.6143 8.09733 13.6143 8.788C13.6143 9.46933 13.3809 10.0107 12.9143 10.412C12.4569 10.804 11.8083 11 10.9683 11H7.77625ZM14.6223 11V4.196H15.7563V11H14.6223ZM8.91025 10.188H10.8563C11.3789 10.188 11.7849 10.076 12.0743 9.852C12.3729 9.628 12.5223 9.278 12.5223 8.802C12.5223 8.33533 12.3776 7.99 12.0883 7.766C11.7989 7.542 11.3883 7.43 10.8563 7.43H8.91025V10.188ZM20.8728 11.126C19.8648 11.126 19.0668 10.7947 18.4788 10.132C17.8908 9.46933 17.5968 8.508 17.5968 7.248V6.198C17.5968 4.84467 17.8675 3.818 18.4088 3.118C18.9501 2.40867 19.7715 1.90467 20.8728 1.606L23.2948 0.92L23.6728 1.858L20.9568 2.586C20.2008 2.79133 19.6315 3.16 19.2488 3.692C18.8755 4.21467 18.6888 4.85867 18.6888 5.624V5.652C18.9035 5.19467 19.2208 4.83533 19.6408 4.574C20.0608 4.30333 20.5555 4.168 21.1248 4.168C21.7128 4.168 22.2308 4.308 22.6788 4.588C23.1268 4.868 23.4721 5.26933 23.7148 5.792C23.9668 6.30533 24.0928 6.912 24.0928 7.612C24.0928 8.32133 23.9575 8.942 23.6868 9.474C23.4255 9.99667 23.0521 10.4027 22.5668 10.692C22.0908 10.9813 21.5261 11.126 20.8728 11.126ZM20.8308 10.216C21.4935 10.216 22.0115 9.99667 22.3848 9.558C22.7581 9.11 22.9448 8.47067 22.9448 7.64C22.9448 6.828 22.7581 6.198 22.3848 5.75C22.0115 5.302 21.4981 5.078 20.8448 5.078C20.1915 5.078 19.6781 5.29733 19.3048 5.736C18.9315 6.17467 18.7448 6.77667 18.7448 7.542C18.7448 8.41933 18.9268 9.08667 19.2908 9.544C19.6548 9.992 20.1681 10.216 20.8308 10.216ZM29.0125 11.126C27.9392 11.126 27.0898 10.8133 26.4645 10.188C25.8392 9.55333 25.5265 8.69467 25.5265 7.612C25.5265 6.912 25.6665 6.296 25.9465 5.764C26.2265 5.22267 26.6092 4.80733 27.0945 4.518C27.5892 4.21933 28.1585 4.07 28.8025 4.07C29.7265 4.07 30.4498 4.36867 30.9725 4.966C31.4952 5.554 31.7565 6.366 31.7565 7.402V7.836H26.6325C26.6698 8.61067 26.8938 9.20333 27.3045 9.614C27.7152 10.0153 28.2845 10.216 29.0125 10.216C29.4232 10.216 29.8152 10.1553 30.1885 10.034C30.5618 9.90333 30.9165 9.69333 31.2525 9.404L31.6445 10.202C31.3365 10.4913 30.9445 10.72 30.4685 10.888C29.9925 11.0467 29.5072 11.126 29.0125 11.126ZM28.8305 4.91C28.1865 4.91 27.6778 5.11067 27.3045 5.512C26.9312 5.91333 26.7118 6.44067 26.6465 7.094H30.7765C30.7485 6.40333 30.5665 5.86667 30.2305 5.484C29.9038 5.10133 29.4372 4.91 28.8305 4.91ZM33.5344 13.52V4.196H34.6404V5.414C34.8457 4.994 35.1491 4.66733 35.5504 4.434C35.9611 4.19133 36.4371 4.07 36.9784 4.07C37.5851 4.07 38.1124 4.21467 38.5604 4.504C39.0177 4.784 39.3677 5.19 39.6104 5.722C39.8624 6.24467 39.9884 6.87 39.9884 7.598C39.9884 8.31667 39.8624 8.942 39.6104 9.474C39.3677 9.99667 39.0177 10.4027 38.5604 10.692C38.1124 10.9813 37.5851 11.126 36.9784 11.126C36.4557 11.126 35.9891 11.0093 35.5784 10.776C35.1677 10.5427 34.8644 10.2207 34.6684 9.81V13.52H33.5344ZM36.7404 10.216C37.3751 10.216 37.8837 9.992 38.2664 9.544C38.6491 9.08667 38.8404 8.438 38.8404 7.598C38.8404 6.74867 38.6491 6.1 38.2664 5.652C37.8837 5.204 37.3751 4.98 36.7404 4.98C36.1057 4.98 35.5971 5.204 35.2144 5.652C34.8317 6.1 34.6404 6.74867 34.6404 7.598C34.6404 8.438 34.8317 9.08667 35.2144 9.544C35.5971 9.992 36.1057 10.216 36.7404 10.216ZM41.8192 11V4.196H42.8552V9.46L46.7892 4.196H47.7552V11H46.7192V5.736L42.7852 11H41.8192ZM51.409 11V5.106H48.945V4.196H55.021V5.106H52.543V11H51.409ZM59.2684 11.126C58.195 11.126 57.3457 10.8133 56.7204 10.188C56.095 9.55333 55.7824 8.69467 55.7824 7.612C55.7824 6.912 55.9224 6.296 56.2024 5.764C56.4824 5.22267 56.865 4.80733 57.3504 4.518C57.845 4.21933 58.4144 4.07 59.0584 4.07C59.9824 4.07 60.7057 4.36867 61.2284 4.966C61.751 5.554 62.0124 6.366 62.0124 7.402V7.836H56.8884C56.9257 8.61067 57.1497 9.20333 57.5604 9.614C57.971 10.0153 58.5404 10.216 59.2684 10.216C59.679 10.216 60.071 10.1553 60.4444 10.034C60.8177 9.90333 61.1724 9.69333 61.5084 9.404L61.9004 10.202C61.5924 10.4913 61.2004 10.72 60.7244 10.888C60.2484 11.0467 59.763 11.126 59.2684 11.126ZM59.0864 4.91C58.4424 4.91 57.9337 5.11067 57.5604 5.512C57.187 5.91333 56.9677 6.44067 56.9024 7.094H61.0324C61.0044 6.40333 60.8224 5.86667 60.4864 5.484C60.1597 5.10133 59.693 4.91 59.0864 4.91ZM67.372 11V4.196H68.408V9.46L72.342 4.196H73.308V11H72.272V5.736L68.338 11H67.372ZM77.8017 11.126C77.2137 11.126 76.6584 11.0513 76.1357 10.902C75.6224 10.7433 75.2071 10.524 74.8897 10.244L75.2537 9.446C75.5804 9.70733 75.9631 9.908 76.4017 10.048C76.8404 10.1787 77.2977 10.244 77.7737 10.244C78.4457 10.244 78.9264 10.146 79.2157 9.95C79.5144 9.754 79.6637 9.46467 79.6637 9.082C79.6637 8.34467 79.1924 7.976 78.2497 7.976H76.6397V7.122H78.1097C78.5111 7.122 78.8284 7.02867 79.0617 6.842C79.3044 6.65533 79.4257 6.394 79.4257 6.058C79.4257 5.722 79.2951 5.456 79.0337 5.26C78.7724 5.05467 78.3524 4.952 77.7737 4.952C76.8684 4.952 76.0657 5.19933 75.3657 5.694L75.0017 4.896C75.7671 4.34533 76.7377 4.07 77.9137 4.07C78.7817 4.07 79.4304 4.238 79.8597 4.574C80.2891 4.91 80.5037 5.38133 80.5037 5.988C80.5037 6.33333 80.4011 6.64133 80.1957 6.912C79.9997 7.17333 79.7291 7.36467 79.3837 7.486C79.8037 7.58867 80.1351 7.78467 80.3777 8.074C80.6204 8.354 80.7417 8.704 80.7417 9.124C80.7417 9.73067 80.4944 10.216 79.9997 10.58C79.5051 10.944 78.7724 11.126 77.8017 11.126ZM89.0004 11.126C88.3191 11.126 87.7311 10.9813 87.2364 10.692C86.7418 10.3933 86.3591 9.978 86.0884 9.446C85.8271 8.90467 85.6964 8.27467 85.6964 7.556C85.6964 6.47333 85.9904 5.624 86.5784 5.008C87.1664 4.38267 87.9738 4.07 89.0004 4.07C89.4204 4.07 89.8358 4.14467 90.2464 4.294C90.6571 4.44333 90.9978 4.65333 91.2684 4.924L90.8764 5.75C90.6058 5.48867 90.3071 5.29733 89.9804 5.176C89.6631 5.05467 89.3598 4.994 89.0704 4.994C88.3611 4.994 87.8151 5.218 87.4324 5.666C87.0498 6.10467 86.8584 6.73933 86.8584 7.57C86.8584 8.382 87.0498 9.026 87.4324 9.502C87.8151 9.96867 88.3611 10.202 89.0704 10.202C89.3598 10.202 89.6631 10.1413 89.9804 10.02C90.3071 9.89867 90.6058 9.70267 90.8764 9.432L91.2684 10.258C90.9978 10.5287 90.6524 10.7433 90.2324 10.902C89.8218 11.0513 89.4111 11.126 89.0004 11.126ZM92.7196 11V4.196H98.6556V11H97.5216V5.106H93.8536V11H92.7196ZM100.895 11V4.196H101.931V9.46L105.865 4.196H106.831V11H105.795V5.736L101.861 11H100.895ZM111.969 11.126C111.288 11.126 110.7 10.9813 110.205 10.692C109.711 10.3933 109.328 9.978 109.057 9.446C108.796 8.90467 108.665 8.27467 108.665 7.556C108.665 6.47333 108.959 5.624 109.547 5.008C110.135 4.38267 110.943 4.07 111.969 4.07C112.389 4.07 112.805 4.14467 113.215 4.294C113.626 4.44333 113.967 4.65333 114.237 4.924L113.845 5.75C113.575 5.48867 113.276 5.29733 112.949 5.176C112.632 5.05467 112.329 4.994 112.039 4.994C111.33 4.994 110.784 5.218 110.401 5.666C110.019 6.10467 109.827 6.73933 109.827 7.57C109.827 8.382 110.019 9.026 110.401 9.502C110.784 9.96867 111.33 10.202 112.039 10.202C112.329 10.202 112.632 10.1413 112.949 10.02C113.276 9.89867 113.575 9.70267 113.845 9.432L114.237 10.258C113.967 10.5287 113.621 10.7433 113.201 10.902C112.791 11.0513 112.38 11.126 111.969 11.126ZM115.688 11V4.196H116.822V7.038H118.096L120.322 4.196H121.568L119.202 7.262C119.445 7.35533 119.664 7.50933 119.86 7.724C120.056 7.93867 120.276 8.24667 120.518 8.648L121.918 11H120.7L119.468 8.942C119.235 8.54067 119.011 8.27467 118.796 8.144C118.582 8.01333 118.278 7.948 117.886 7.948H116.822V11H115.688ZM125.214 11.126C124.747 11.126 124.327 11.0373 123.954 10.86C123.59 10.6733 123.3 10.4213 123.086 10.104C122.871 9.78667 122.764 9.432 122.764 9.04C122.764 8.54533 122.89 8.15333 123.142 7.864C123.403 7.57467 123.828 7.36933 124.416 7.248C125.013 7.11733 125.825 7.052 126.852 7.052H127.3V6.618C127.3 6.03933 127.178 5.624 126.936 5.372C126.702 5.11067 126.324 4.98 125.802 4.98C125.391 4.98 124.994 5.04067 124.612 5.162C124.229 5.274 123.837 5.46067 123.436 5.722L123.044 4.896C123.398 4.644 123.828 4.44333 124.332 4.294C124.845 4.14467 125.335 4.07 125.802 4.07C126.679 4.07 127.328 4.28467 127.748 4.714C128.177 5.14333 128.392 5.81067 128.392 6.716V11H127.328V9.824C127.15 10.2253 126.875 10.5427 126.502 10.776C126.138 11.0093 125.708 11.126 125.214 11.126ZM125.396 10.272C125.956 10.272 126.413 10.0807 126.768 9.698C127.122 9.306 127.3 8.81133 127.3 8.214V7.794H126.866C126.11 7.794 125.512 7.83133 125.074 7.906C124.644 7.97133 124.341 8.09267 124.164 8.27C123.996 8.438 123.912 8.67133 123.912 8.97C123.912 9.35267 124.042 9.66533 124.304 9.908C124.574 10.1507 124.938 10.272 125.396 10.272Z" fill="#FDFDFD"/>
</svg>
